<svg data-v-423bf9ae="" xmlns="http://www.w3.org/2000/svg" viewBox="0 0 385.508553641183 60" class="font"><!----><!----><!----><g data-v-423bf9ae="" id="ec855796-f7d8-47f0-89e7-9e549adbca84" fill="black" transform="matrix(6.857142857142857,0,0,6.857142857142857,-4.800003145422238,-57.80571637834821)"><path d="M3.50 13.82L3.50 14.87L6.79 14.87L6.79 17.18L0.70 17.18L0.70 8.43L6.86 8.43L6.51 10.74L3.50 10.74L3.50 11.79L6.30 11.79L6.30 13.82L3.50 13.82ZM7.77 17.18L8.30 8.43L11.82 8.43L12.91 12.88L13.01 12.88L14.10 8.43L17.61 8.43L18.14 17.18L15.36 17.18L15.13 12.94L15.04 12.94L14.03 17.18L11.89 17.18L10.86 12.94L10.78 12.94L10.56 17.18L7.77 17.18ZM22.13 13.82L22.13 14.87L25.42 14.87L25.42 17.18L19.33 17.18L19.33 8.43L25.49 8.43L25.14 10.74L22.13 10.74L22.13 11.79L24.93 11.79L24.93 13.82L22.13 13.82ZM34.38 17.18L31.35 17.18L30.16 14.64L29.41 14.64L29.41 17.18L26.61 17.18L26.61 8.43L30.67 8.43Q32.47 8.43 33.25 9.18Q34.03 9.94 34.03 11.66L34.03 11.66Q34.03 13.47 32.96 14.15L32.96 14.15L34.38 17.18ZM29.41 10.74L29.41 12.61L30.55 12.61Q30.86 12.61 30.98 12.49Q31.09 12.36 31.09 12.03L31.09 12.03L31.09 11.33Q31.09 10.99 30.98 10.86Q30.86 10.74 30.55 10.74L30.55 10.74L29.41 10.74ZM38.16 13.82L38.16 14.87L41.45 14.87L41.45 17.18L35.36 17.18L35.36 8.43L41.52 8.43L41.17 10.74L38.16 10.74L38.16 11.79L40.96 11.79L40.96 13.82L38.16 13.82ZM42.64 17.18L42.64 8.43L45.44 8.43L45.44 14.87L48.10 14.87L48.10 17.18L42.64 17.18ZM48.87 8.43L52.78 8.43Q54.43 8.43 55.31 8.81Q56.20 9.20 56.56 10.13Q56.92 11.06 56.92 12.81L56.92 12.81Q56.92 14.56 56.56 15.48Q56.20 16.41 55.31 16.79Q54.43 17.18 52.78 17.18L52.78 17.18L48.87 17.18L48.87 8.43ZM51.67 10.61L51.67 14.99L52.82 14.99Q53.44 14.99 53.68 14.80Q53.91 14.62 53.91 14.11L53.91 14.11L53.91 11.49Q53.91 10.99 53.68 10.80Q53.44 10.61 52.82 10.61L52.82 10.61L51.67 10.61Z"></path></g><!----><!----></svg>