<svg data-v-423bf9ae="" xmlns="http://www.w3.org/2000/svg" viewBox="0 0 546 90" class="iconLeft"><!----><!----><!----><g data-v-423bf9ae="" id="58b5b0fc-78e4-408a-bf07-ebd28afb3828" fill="black" transform="matrix(6.857142857142857,0,0,6.857142857142857,155.53175344637464,-42.80571637834821)"><path d="M3.50 13.82L3.50 14.87L6.79 14.87L6.79 17.18L0.70 17.18L0.70 8.43L6.86 8.43L6.51 10.74L3.50 10.74L3.50 11.79L6.30 11.79L6.30 13.82L3.50 13.82ZM7.77 17.18L8.30 8.43L11.82 8.43L12.91 12.88L13.01 12.88L14.10 8.43L17.61 8.43L18.14 17.18L15.36 17.18L15.13 12.94L15.04 12.94L14.03 17.18L11.89 17.18L10.86 12.94L10.78 12.94L10.56 17.18L7.77 17.18ZM22.13 13.82L22.13 14.87L25.42 14.87L25.42 17.18L19.33 17.18L19.33 8.43L25.49 8.43L25.14 10.74L22.13 10.74L22.13 11.79L24.93 11.79L24.93 13.82L22.13 13.82ZM34.38 17.18L31.35 17.18L30.16 14.64L29.41 14.64L29.41 17.18L26.61 17.18L26.61 8.43L30.67 8.43Q32.47 8.43 33.25 9.18Q34.03 9.94 34.03 11.66L34.03 11.66Q34.03 13.47 32.96 14.15L32.96 14.15L34.38 17.18ZM29.41 10.74L29.41 12.61L30.55 12.61Q30.86 12.61 30.98 12.49Q31.09 12.36 31.09 12.03L31.09 12.03L31.09 11.33Q31.09 10.99 30.98 10.86Q30.86 10.74 30.55 10.74L30.55 10.74L29.41 10.74ZM38.16 13.82L38.16 14.87L41.45 14.87L41.45 17.18L35.36 17.18L35.36 8.43L41.52 8.43L41.17 10.74L38.16 10.74L38.16 11.79L40.96 11.79L40.96 13.82L38.16 13.82ZM42.64 17.18L42.64 8.43L45.44 8.43L45.44 14.87L48.10 14.87L48.10 17.18L42.64 17.18ZM48.87 8.43L52.78 8.43Q54.43 8.43 55.31 8.81Q56.20 9.20 56.56 10.13Q56.92 11.06 56.92 12.81L56.92 12.81Q56.92 14.56 56.56 15.48Q56.20 16.41 55.31 16.79Q54.43 17.18 52.78 17.18L52.78 17.18L48.87 17.18L48.87 8.43ZM51.67 10.61L51.67 14.99L52.82 14.99Q53.44 14.99 53.68 14.80Q53.91 14.62 53.91 14.11L53.91 14.11L53.91 11.49Q53.91 10.99 53.68 10.80Q53.44 10.61 52.82 10.61L52.82 10.61L51.67 10.61Z"></path></g><!----><g data-v-423bf9ae="" id="1cf66955-a9eb-4819-9ffb-8d12b2fcb432" transform="matrix(1.4218008793208223,0,0,1.4218008793208223,-0.46113718379898216,-25.761136823120196)" stroke="none" fill="black"><path d="M25.7 35.7v2.4C32.6 37 44 34.1 52 26.5c.1-1.4 1.3-2.5 2.8-2.3 1.3.2 2.2 1.3 2.2 2.6v14.5c3.2 1.2 5.5 4.3 5.5 7.9 0 3.6-2.3 6.7-5.5 7.9v14.6c0 1.3-.9 2.5-2.2 2.6-1.5.2-2.7-.9-2.8-2.3-8-7.5-19.3-10.5-26.2-11.6v2.4h-5.9l2.5 9.9c.4 1.6 1.9 2.7 3.5 2.7.7 0 1.3.5 1.4 1.1l.9 3.9c.2.7-.3 1.3-1 1.3H16.9c-.5 0-1-.4-1.1-.9l-4.4-18H10c-3.1 0-5.7-2.5-5.7-5.7v-2.2H2.6c-1 0-1.9-.9-1.9-1.9v-7.1c0-1 .9-1.9 1.9-1.9h1.7v-2.5c0-3.1 2.5-5.7 5.7-5.7h15.7zm73.6 13.5c0 4.8-3.9 8.7-8.7 8.7-3.7 0-6.9-2.4-8.1-5.7H67.2v-6h15.3c1.2-3.3 4.4-5.7 8.1-5.7 4.8 0 8.7 3.9 8.7 8.7zm-6 0c0-1.5-1.2-2.7-2.7-2.7S88 47.7 88 49.2c0 1.5 1.2 2.7 2.7 2.7s2.6-1.2 2.6-2.7zm-2.6-30.8c4.8 0 8.7 3.9 8.7 8.7 0 4.8-3.9 8.7-8.7 8.7-3.7 0-6.9-2.4-8.1-5.7h-3.1l-10 10.2-4.3-4.2 11.8-12h5.6c1.2-3.3 4.3-5.7 8.1-5.7zm0 6c-1.5 0-2.7 1.2-2.7 2.7 0 1.5 1.2 2.7 2.7 2.7s2.7-1.2 2.7-2.7c-.1-1.5-1.3-2.7-2.7-2.7zm8.6 46.9c0 4.8-3.9 8.7-8.7 8.7-3.7 0-6.9-2.4-8.1-5.7h-5.6l-11.8-12 4.3-4.2 10 10.2h3.1c1.2-3.3 4.4-5.7 8.1-5.7 4.8.1 8.7 4 8.7 8.7zm-6 0c0-1.5-1.2-2.7-2.7-2.7S88 69.9 88 71.3c0 1.5 1.2 2.7 2.7 2.7s2.6-1.2 2.6-2.7z"></path></g><!----></svg>